# AST/ASF file generated using VICON BodyLanguage
# -----------------------------------------------
:version 1.10
:name VICON
:units
  mass 1.0
  length 0.45
  angle deg
:documentation
   .ast/.asf automatically generated from VICON data using
   VICON BodyBuilder and BodyLanguage model FoxedUp or BRILLIANT.MOD
:root
   order TX TY TZ RX RY RZ
   axis XYZ
   position 0 0 0  
   orientation 0 0 0 
:bonedata
  begin
     id 1 
     name lhipjoint
     direction 0.662698 -0.695252 0.27831 
     length 2.53073 
     axis 0 0 0  XYZ
  end
  begin
     id 2 
     name lfemur
     direction 0.34202 -0.939693 0  
     length 7.16147  
     axis 0 0 20  XYZ
    dof rx ry rz
    limits (-160.0 20.0)
           (-70.0 70.0)
           (-60.0 70.0)
  end
  begin
     id 3 
     name ltibia
     direction 0.34202 -0.939693 0   
     length 7.63967   
     axis 0 0 20   XYZ
    dof rx
    limits (-10.0 170.0)
  end
  begin
     id 4 
     name lfoot
     direction 0.0938457 -0.257721 0.961651   
     length 1.89793   
     axis -90 7.62852e-016 20   XYZ
    dof rx rz
    limits (-45.0 90.0)
           (-70.0 20.0)
  end
  begin
     id 5 
     name ltoes
     direction -0.00116841 -0.0030592 0.999995   
     length 0.955649   
     axis -90 7.62852e-016 20   XYZ
    dof rx
    limits (-90.0 20.0)
  end
  begin
     id 6 
     name rhipjoint
     direction -0.649445 -0.705948 0.282592   
     length 2.49238  
     axis 0 0 0  XYZ 
  end
  begin
     id 7 
     name rfemur
     direction -0.34202 -0.939693 0   
     length 6.90728   
     axis 0 0 -20   XYZ
    dof rx ry rz
    limits (-160.0 20.0)
           (-70.0 70.0)
           (-70.0 60.0)
  end
  begin
     id 8 
     name rtibia
     direction -0.34202 -0.939693 0   
     length 7.72868   
     axis 0 0 -20   XYZ
    dof rx
    limits (-10.0 170.0)
 end
 begin
     id 9 
     name rfoot
     direction -0.0920068 -0.252865 0.963117   
     length 1.97476  
     axis -90 -7.62852e-016 -20   XYZ
    dof rx rz
    limits (-45.0 90.0)
           (-20.0 70.0)
  end
  begin
     id 10 
     name rtoes
     direction 0.000391322 0.00230649 0.999997   
     length 0.992641   
     axis -90 -7.62852e-016 -20   XYZ
    dof rx
    limits (-90.0 20.0)
  end
  begin
     id 11 
     name lowerback
     direction -0.00875327 0.998321 -0.0572635   
     length 2.20024   
     axis 0 0 0   XYZ
    dof rx ry rz
    limits (-20.0 45.0)
           (-30.0 30.0)
           (-30.0 30.0)
  end
  begin
     id 12 
     name upperback
     direction 0.00753931 0.999972 -0.000360425   
     length 2.20538   
     axis 0 0 0   XYZ
    dof rx ry rz
    limits (-20.0 45.0)
           (-30.0 30.0)
           (-30.0 30.0)
  end
  begin
     id 13 
     name thorax
     direction 0.0117767 0.999601 0.0256663   
     length 2.21508   
     axis 0 0 0   XYZ
    dof rx ry rz
    limits (-20.0 45.0)
           (-30.0 30.0)
           (-30.0 30.0)
  end
  begin
     id 14 
     name lowerneck
     direction 0.060228 0.994909 0.0807986   
     length 1.7607   
     axis 0 0 0   XYZ
    dof rx ry rz
    limits (-20.0 45.0)
           (-30.0 30.0)
           (-30.0 30.0)
  end
  begin
     id 15 
     name upperneck
     direction -0.0563647 0.959594 -0.275685   
     length 1.75612   
     axis 0 0 0   XYZ
    dof rx ry rz
    limits (-20.0 45.0)
           (-30.0 30.0)
           (-30.0 30.0)
  end
  begin
     id 16
     name head
     direction -0.0161544 0.99458 -0.102714  
     length 1.79288  
     axis 0 0 0   XYZ
    dof rx ry rz
    limits (-20.0 45.0)
           (-30.0 30.0)
           (-30.0 30.0)
  end
  begin
     id 17 
     name lclavicle
     direction 0.93913 0.332189 -0.087669  
     length 3.52087  
     axis 0 0 0   XYZ
    dof ry rz
    limits (-20.0 10.0)
           (0.0 20.0)
  end
  begin
     id 18 
     name lhumerus
     direction 1 -4.48974e-011 -2.70836e-027   
     length 5.35289   
     axis -180 -30 -90   XYZ
    dof rx ry rz
    limits (-60.0 90.0)
           (-90.0 90.0)
           (-90.0 90.0)
  end
  begin
     id 19
     name lradius
     direction 1 -4.48961e-011 -9.76021e-027   
     length 3.27727   
     axis -180 -30 -90   XYZ
    dof rx
    limits (-10.0 170.0)
  end
  begin
     id 20
     name lwrist
     direction 1 -4.49103e-011 -2.23668e-026   
     length 1.63864   
     axis 1.44924e-014 90 90   XYZ
    dof ry
    limits (-180.0 0.0)
 end
  begin
     id 21 
     name lhand
     direction 1 3.0697e-005 0.000161777   
     length 0.54443   
     axis 2.85318e-014 90 90   XYZ
    dof rx rz
    limits (-90.0 90.0)
           (-45.0 45.0)
  end
  begin
     id 22 
     name lfingers
     direction 1 -4.49027e-011 -8.9447e-026   
     length 0.438912   
     axis 5.70628e-014 90 90   XYZ
    dof rx
    limits (0.0 90.0)
  end
  begin
     id 23
     name lthumb
     direction 0.707058 2.6516e-005 0.707156   
     length 0.630274   
     axis -90 45 -3.53137e-014   XYZ
    dof rx rz
    limits (-45.0 45.0)
           (-45.0 45.0)
  end
  begin
     id 24 
     name rclavicle
     direction -0.95274 0.284984 -0.105215   
     length 3.43401  
     axis 0 0 0   XYZ 
    dof ry rz
    limits (-10.0 20.0)
           (-20.0 0.0)
  end
  begin
     id 25 
     name rhumerus
     direction -0.999999 -0.000575019 -0.00106829  
     length 5.52077   
     axis -180 30 90   XYZ
    dof rx ry rz
    limits (-90.0 60.0)
           (-90.0 90.0)
           (-90.0 90.0)
  end
  begin
     id 26 
     name rradius
     direction -1 -4.4879e-011 -6.35415e-027   
     length 3.32364   
     axis -180 30 90   XYZ
    dof rx
    limits (-10.0 170.0)
  end
  begin
     id 27 
     name rwrist
     direction -1 -4.49048e-011 -9.98542e-027   
     length 1.66182   
     axis 6.32482e-015 -90 -90   XYZ
    dof ry
    limits (-180.0 0.0)
  end
  begin
     id 28
     name rhand
     direction -1 -4.48978e-011 -1.99771e-026   
     length 0.732235   
     axis 1.27479e-014 -90 -90   XYZ
    dof rx rz
    limits (-90.0 90.0)
           (-45.0 45.0)
  end
  begin
     id 29
     name rfingers
     direction -1 -4.49144e-011 -3.99245e-026   
     length 0.590347   
     axis 2.5496e-014 -90 -90   XYZ
    dof rx
    limits (0.0 90.0)
  end
  begin
     id 30
     name rthumb
     direction -0.707107 -6.35121e-011 0.707107   
     length 0.847624   
     axis -90 -45 -2.82974e-014   XYZ
    dof rx rz
    limits (-45.0 45.0)
           (-45.0 45.0)
  end
:hierarchy
  begin
    root lhipjoint rhipjoint lowerback
    lhipjoint lfemur
    lfemur ltibia
    ltibia lfoot
    lfoot ltoes
    rhipjoint rfemur
    rfemur rtibia
    rtibia rfoot
    rfoot rtoes
    lowerback upperback
    upperback thorax
    thorax lowerneck lclavicle rclavicle
    lowerneck upperneck
    upperneck head
    lclavicle lhumerus
    lhumerus lradius
    lradius lwrist
    lwrist lhand lthumb
    lhand lfingers
    rclavicle rhumerus
    rhumerus rradius
    rradius rwrist
    rwrist rhand rthumb
    rhand rfingers
  end

#!OML:ASF G:\Work\Work\Patient Classification 1\Elijah\terrain1\Elijah.ASF
:FULLY-SPECIFIED
:DEGREES
3690
root 5.50836 18.7844 -14.7283 187.482 -5.41514 -182.547
lowerback 16.537 -0.226363 -3.22778
upperback 5.51327 -1.51598 2.61053
thorax -3.23837 -1.12562 4.9027
lowerneck -9.52458 11.5414 14.7293
upperneck 18.044 16.4974 -17.5369
head 10.0807 7.04991 -6.41019
rclavicle 9.14409e-015 9.54166e-015
rhumerus -30.6963 10.6395 -78.2081
rradius 47.7819
rwrist -5.13447
rhand -16.6859 26.1213
rfingers 7.12502
rthumb 9.53843 -3.6428
lclavicle 9.14409e-015 9.54166e-015
lhumerus -12.7323 -30.9874 77.3837
lradius 116.028
lwrist 14.6868
lhand -16.3877 20.9207
lfingers 7.12502
lthumb 9.82609 50.6714
rfemur -76.836 -6.13281 22.5052
rtibia 85.9338
rfoot -17.8036 -5.50702
rtoes -16.3938
lfemur -0.834575 -10.7656 -22.8793
ltibia 27.0719
lfoot 35.3781 -3.86881
ltoes -31.1309
3691
root 5.5279 18.8805 -14.9315 188.002 -5.54169 -182.834
lowerback 16.4914 -0.392787 -3.27621
upperback 5.03269 -1.65678 2.77922
thorax -3.70078 -1.14326 5.14784
lowerneck -9.29137 11.4793 14.0405
upperneck 17.8177 16.4663 -17.3312
head 9.86398 7.02031 -6.2347
rclavicle 4.05521e-014 6.36111e-015
rhumerus -31.284 11.1901 -78.3072
rradius 47.8003
rwrist -5.55295
rhand -16.6721 25.9073
rfingers 7.12502
rthumb 9.55177 -3.85617
lclavicle 4.05521e-014 6.36111e-015
lhumerus -15.1468 -31.6048 78.4986
lradius 115.725
lwrist 14.8532
lhand -17.2914 20.3188
lfingers 7.12502
lthumb 8.95414 50.1088
rfemur -76.1331 -5.96158 22.0321
rtibia 85.806
rfoot -18.6968 -5.67621
rtoes -15.1099
lfemur -0.904846 -11.5971 -23.2019
ltibia 26.3946
lfoot 37.6788 -2.39122
ltoes -32.5164
3692
root 5.49888 18.9828 -15.1006 188.398 -6.28915 -183.897
lowerback 16.1075 -0.814401 -3.24665
upperback 5.30313 -2.23631 2.6451
thorax -3.15225 -1.46049 5.06761
lowerneck -9.78348 11.4208 12.9691
upperneck 17.0438 16.4092 -17.0492
head 9.5486 6.96371 -5.9265
rclavicle -1.66979e-014 2.54444e-014
rhumerus -30.366 11.5273 -78.2016
rradius 47.6041
rwrist -6.13181
rhand -16.6305 25.7158
rfingers 7.12502
rthumb 9.59187 -4.04584
lclavicle -1.66979e-014 2.54444e-014
lhumerus -15.8788 -31.7522 78.6644
lradius 115.155
lwrist 15.1068
lhand -18.3935 20.2667
lfingers 7.12502
lthumb 7.89055 50.0994
rfemur -75.3536 -7.16048 20.7921
rtibia 85.7725
rfoot -19.5902 -5.39082
rtoes -14.587
lfemur -0.994538 -12.6878 -24.402
ltibia 26.216
lfoot 38.516 -1.51363
ltoes -32.4612
3693
root 5.49222 19.0806 -15.2423 188.816 -6.62879 -184.137
lowerback 15.8 -1.02135 -2.6761
upperback 5.57626 -2.45728 2.67079
thorax -2.69876 -1.5997 4.78326
lowerneck -10.8406 11.5701 12.8181
upperneck 16.7979 16.6468 -17.4145
head 9.72915 6.99061 -5.93618
rclavicle -3.33958e-014 1.03368e-014
rhumerus -29.3194 11.2946 -78.0531
rradius 47.3277
rwrist -6.2848
rhand -16.5302 25.7623
rfingers 7.12502
rthumb 9.68863 -3.99483
lclavicle -3.33958e-014 1.03368e-014
lhumerus -16.2651 -32.0032 78.6669
lradius 114.32
lwrist 15.232
lhand -19.3792 20.3233
lfingers 7.12502
lthumb 6.9391 50.1896
rfemur -74.6704 -7.47608 20.4801
rtibia 85.5891
rfoot -20.3465 -5.48846
rtoes -14.5991
lfemur -1.21998 -13.2951 -24.62
ltibia 26.0021
lfoot 38.9186 -0.852501
ltoes -32.0881
3694
root 5.51656 19.1541 -15.3763 189.596 -6.13946 -184.376
lowerback 15.5541 -0.914417 -2.83454
upperback 5.38861 -2.29357 2.73055
thorax -2.77329 -1.49903 4.90315
lowerneck -11.3037 11.5698 12.3371
upperneck 16.5649 16.6596 -17.2899
head 9.67996 6.96466 -5.78528
rclavicle 3.18055e-015 -8.74653e-015
rhumerus -29.0198 11.3086 -78.0605
rradius 47.2174
rwrist -6.42797
rhand -16.388 25.7737
rfingers 7.12502
rthumb 9.82588 -3.97705
lclavicle 3.18055e-015 -8.74653e-015
lhumerus -17.4309 -32.3416 79.1626
lradius 113.349
lwrist 15.3109
lhand -20.0891 20.163
lfingers 7.12502
lthumb 6.2538 50.0507
rfemur -74.6864 -6.58718 20.1926
rtibia 85.3371
rfoot -20.6988 -5.86144
rtoes -14.3125
lfemur -2.09995 -13.1849 -24.7335
ltibia 26.1625
lfoot 38.5164 -0.194727
ltoes -31.0369
3695
root 5.55451 19.2161 -15.6054 190.429 -5.50464 -185.019
lowerback 14.1803 -0.726288 -3.5667
upperback 5.28723 -2.04981 2.61489
thorax -2.14822 -1.36714 5.09811
lowerneck -11.3852 11.4022 11.6293
upperneck 16.3388 16.4166 -16.7701
head 9.457 6.86434 -5.52177
rclavicle -3.45885e-014 -3.97569e-015
rhumerus -29.2168 11.3787 -78.2289
rradius 47.1302
rwrist -6.7423
rhand -16.2985 25.7662
rfingers 7.12502
rthumb 9.91221 -3.98045
lclavicle -3.45885e-014 -3.97569e-015
lhumerus -18.8668 -33.0499 79.7748
lradius 112.314
lwrist 15.4182
lhand -20.897 20.285
lfingers 7.12502
lthumb 5.47378 50.1943
rfemur -74.6208 -5.76444 19.463
rtibia 85.2713
rfoot -21.2765 -6.22448
rtoes -13.9895
lfemur -2.78635 -12.5305 -25.331
ltibia 26.7962
lfoot 37.2276 -0.231337
ltoes -29.3478
3696
root 5.56343 19.2944 -15.7169 190.712 -5.62289 -184.885
lowerback 14.7531 -0.805611 -2.7507
upperback 4.99918 -2.02976 2.6473
thorax -2.78878 -1.32067 4.69676
lowerneck -11.6456 11.2873 11.0378
upperneck 16.2515 16.2675 -16.4178
head 9.36261 6.78153 -5.3163
rclavicle -8.74653e-015 1.03368e-014
rhumerus -29.162 11.6702 -78.3827
rradius 46.6622
rwrist -7.25052
rhand -16.393 25.7932
rfingers 7.12502
rthumb 9.82103 -3.95778
lclavicle -8.74653e-015 1.03368e-014
lhumerus -20.0999 -33.6823 80.3923
lradius 111.126
lwrist 15.1949
lhand -21.6203 20.4943
lfingers 7.12502
lthumb 4.7754 50.4205
rfemur -74.0237 -5.61326 19.5977
rtibia 84.8534
rfoot -21.62 -6.53761
rtoes -13.622
lfemur -3.3924 -11.7844 -25.1006
ltibia 27.7595
lfoot 36.1119 -0.91333
ltoes -27.59
3697
root 5.57224 19.3994 -15.8381 190.816 -5.73885 -184.786
lowerback 15.3786 -0.878481 -2.01205
upperback 4.77038 -2.01217 2.65576
thorax -3.39186 -1.28801 4.31576
lowerneck -11.9718 11.2296 10.7384
upperneck 16.3304 16.2051 -16.2805
head 9.40053 6.72424 -5.21829
rclavicle 8.34896e-015 6.36111e-015
rhumerus -29.2382 11.278 -78.4939
rradius 46.684
rwrist -7.09457
rhand -16.1347 25.3924
rfingers 7.12502
rthumb 10.0702 -4.34668
lclavicle 8.34896e-015 6.36111e-015
lhumerus -21.3363 -34.1164 81.0809
lradius 109.775
lwrist 14.7222
lhand -21.827 20.584
lfingers 7.12502
lthumb 4.57578 50.5146
rfemur -72.9738 -5.50033 19.6723
rtibia 84.2525
rfoot -22.1457 -6.82413
rtoes -13.4296
lfemur -4.0216 -11.4164 -24.9172
ltibia 28.7344
lfoot 34.7868 -1.21778
ltoes -25.6449
3698
root 5.5867 19.4955 -15.9646 191.108 -5.85597 -184.706
lowerback 15.6626 -0.958974 -1.42024
upperback 4.50898 -1.99821 2.65466
thorax -3.84074 -1.25756 3.99491
lowerneck -12.1259 11.1178 10.3856
upperneck 16.3851 16.053 -15.994
head 9.36494 6.64804 -5.08217
rclavicle 3.97569e-015 2.38542e-015
rhumerus -29.3126 10.8642 -78.6721
rradius 46.5011
rwrist -6.90586
rhand -16.0031 25.2746
rfingers 7.12502
rthumb 10.1972 -4.45826
lclavicle 3.97569e-015 2.38542e-015
lhumerus -22.603 -34.4311 81.7476
lradius 108.371
lwrist 14.4901
lhand -21.5196 20.7002
lfingers 7.12502
lthumb 4.87261 50.6242
rfemur -72.1572 -5.36581 19.7731
rtibia 83.6169
rfoot -22.5632 -7.23651
rtoes -13.773
lfemur -4.93454 -10.9484 -24.6904
ltibia 29.9665
lfoot 33.4019 -1.90947
ltoes -23.7733
3699
root 5.60514 19.5807 -16.1122 191.386 -5.77707 -184.639
lowerback 15.6368 -0.957114 -0.9994
upperback 4.32756 -1.90209 2.63967
thorax -4.03945 -1.19508 3.72572
lowerneck -12.2265 10.9926 9.98852
upperneck 16.4272 15.8841 -15.6679
head 9.30607 6.56847 -4.93048
rclavicle -1.35174e-014 -3.02153e-014
rhumerus -29.4204 10.6094 -78.8869
rradius 46.2758
rwrist -6.90469
rhand -16.2526 25.5954
rfingers 7.12502
rthumb 9.95644 -4.14911
lclavicle -1.35174e-014 -3.02153e-014
lhumerus -23.8316 -34.7223 82.432
lradius 106.896
lwrist 14.4598
lhand -21.4275 20.6535
lfingers 7.12502
lthumb 4.96153 50.5755
rfemur -71.3604 -5.03864 19.846
rtibia 83.0862
rfoot -22.9795 -7.66026
rtoes -14.3336
lfemur -5.69589 -10.3511 -24.5691
ltibia 31.2832
lfoot 31.7593 -3.4527
ltoes -23.3797
3700
root 5.61427 19.6534 -16.2317 191.496 -5.82498 -184.542
lowerback 16.0603 -0.999486 -0.350963
upperback 4.15264 -1.84041 2.61453
thorax -4.47602 -1.15601 3.34143
lowerneck -12.5211 10.9334 9.66915
upperneck 16.5455 15.8205 -15.4639
head 9.34482 6.51689 -4.8086
rclavicle -8.74653e-015 -7.95139e-016
rhumerus -29.4268 10.4652 -79.0599
rradius 46.1351
rwrist -6.93952
rhand -16.484 25.635
rfingers 7.12502
rthumb 9.73322 -4.1201
lclavicle -8.74653e-015 -7.95139e-016
lhumerus -25.0051 -35.0128 83.2017
lradius 105.283
lwrist 14.1895
lhand -21.7938 20.5129
lfingers 7.12502
lthumb 4.60789 50.4428
rfemur -70.5445 -4.87183 19.9493
rtibia 82.6633
rfoot -23.327 -7.9634
rtoes -14.7134
lfemur -6.24032 -9.9687 -24.4578
ltibia 32.5553
lfoot 30.0614 -4.47075
ltoes -21.5342
3701
root 5.63049 19.7293 -16.3781 191.392 -5.83824 -184.499
lowerback 16.2427 -0.995181 0.0855409
upperback 4.15535 -1.77032 2.59681
thorax -4.58762 -1.12661 3.0685
lowerneck -12.7749 10.853 9.2749
upperneck 16.6547 15.7312 -15.1994
head 9.35741 6.45734 -4.66004
rclavicle -1.51076e-014 -3.89618e-014
rhumerus -29.2695 10.1315 -79.1567
rradius 45.8161
rwrist -6.68727
rhand -16.466 25.4299
rfingers 7.12502
rthumb 9.75059 -4.32434
lclavicle -1.51076e-014 -3.89618e-014
lhumerus -25.9198 -35.1221 83.8858
lradius 103.412
lwrist 13.5266
lhand -21.5739 20.7635
lfingers 7.12502
lthumb 4.82019 50.6887
rfemur -69.4162 -4.66897 20.0281
rtibia 82.2871
rfoot -23.7884 -8.50981
rtoes -15.4732
lfemur -6.59519 -9.5172 -24.4152
ltibia 34.0992
lfoot 28.3012 -5.13441
ltoes -18.538
3702
root 5.6452 19.8147 -16.5706 191.65 -5.54883 -184.533
lowerback 15.4008 -0.909465 0.282076
upperback 4.18894 -1.62217 2.55662
thorax -4.11306 -1.0513 2.85223
lowerneck -12.7799 10.7176 8.74594
upperneck 16.7062 15.5734 -14.8525
head 9.27628 6.37899 -4.48401
rclavicle -8.74653e-015 3.49861e-014
rhumerus -29.3025 9.66192 -79.2381
rradius 45.6936
rwrist -6.3912
rhand -16.363 25.102
rfingers 7.12502
rthumb 9.84998 -4.64763
lclavicle -8.74653e-015 3.49861e-014
lhumerus -26.7076 -34.8715 84.5481
lradius 101.361
lwrist 12.6582
lhand -20.5424 21.2188
lfingers 7.12502
lthumb 5.81616 51.119
rfemur -68.5386 -4.2526 20.0203
rtibia 81.9454
rfoot -24.3175 -9.13784
rtoes -16.4986
lfemur -7.03039 -8.82781 -24.5124
ltibia 35.3068
lfoot 26.6977 -5.53948
ltoes -15.6813
3703
root 5.65754 19.8882 -16.6245 191.649 -5.95497 -184.4
lowerback 16.5315 -1.08352 1.05785
upperback 3.878 -1.68837 2.58142
thorax -5.06641 -1.07948 2.50288
lowerneck -12.8708 10.6058 8.22327
upperneck 16.8276 15.4588 -14.5386
head 9.2463 6.309 -4.31069
rclavicle -1.90833e-014 -2.54444e-014
rhumerus -29.572 9.0814 -79.3228
rradius 46.0369
rwrist -6.18894
rhand -16.3573 24.7835
rfingers 7.12502
rthumb 9.85544 -4.96586
lclavicle -1.90833e-014 -2.54444e-014
lhumerus -27.6016 -34.4858 85.3055
lradius 99.3025
lwrist 11.8492
lhand -19.691 21.4472
lfingers 7.12502
lthumb 6.6381 51.3232
rfemur -67.7945 -4.37712 20.2624
rtibia 81.4127
rfoot -24.2902 -9.53681
rtoes -16.686
lfemur -8.15375 -8.43385 -24.2549
ltibia 37.3045
lfoot 25.7586 -6.00261
ltoes -13.4418
3704
root 5.70109 19.9616 -16.9812 191.089 -5.14614 -184.786
lowerback 14.3298 -0.666587 0.0887253
upperback 4.66974 -1.39389 2.53025
thorax -3.03758 -0.964878 2.84578
lowerneck -13.1579 10.5421 7.8151
upperneck 17.0688 15.4172 -14.3103
head 9.32197 6.25618 -4.16559
rclavicle -3.10104e-014 3.18055e-014
rhumerus -29.4984 8.44292 -79.4007
rradius 45.8406
rwrist -6.03327
rhand -16.6506 25.01
rfingers 7.12502
rthumb 9.57245 -4.75253
lclavicle -3.10104e-014 3.18055e-014
lhumerus -28.4073 -34.089 86.0452
lradius 97.1253
lwrist 10.9567
lhand -18.8717 21.7443
lfingers 7.12502
lthumb 7.42894 51.5939
rfemur -65.3938 -3.48352 19.7313
rtibia 81.1651
rfoot -25.6442 -10.0123
rtoes -16.7989
lfemur -7.28038 -7.18331 -24.9537
ltibia 39.2223
lfoot 23.98 -6.96821
ltoes -12.6776
